<svg xmlns="http://www.w3.org/2000/svg" viewBox="0 0 22 18" width="22" height="18">
<style>
	:root { color: #520053 }
	@media (prefers-color-scheme: dark) {
		:root { color: #fa00ff }
	}
</style>
<defs></defs><g transform="matrix(1,0,0,1,11.5,9.5)">
<g>
	<g>
		<path d="M8.5,-9.5 C8.5,-9.5 -9.5,-9.5 -9.5,-9.5 C-10.600000023841858,-9.5 -11.5,-8.599999904632568 -11.5,-7.5 C-11.5,-7.5 -11.5,6.5 -11.5,6.5 C-11.5,7.600000381469727 -10.600000023841858,8.5 -9.5,8.5 C-9.5,8.5 8.5,8.5 8.5,8.5 C9.600000381469727,8.5 10.5,7.600000381469727 10.5,6.5 C10.5,6.5 10.5,-7.5 10.5,-7.5 C10.5,-8.599999904632568 9.600000381469727,-9.5 8.5,-9.5M8.5,6.5 C8.5,6.5 -9.5,6.5 -9.5,6.5 C-9.5,6.5 -9.5,-7.5 -9.5,-7.5 C-9.5,-7.5 8.5,-7.5 8.5,-7.5 C8.5,-7.5 8.5,6.5 8.5,6.5 Z" fill="currentColor"/>
	</g>
</g></g></svg>