<svg xmlns="http://www.w3.org/2000/svg" viewBox="0 0 22 18" width="22" height="18">
<style>
	:root { color: #520053 }
	@media (prefers-color-scheme: dark) {
		:root { color: #fa00ff }
	}
</style>
<defs></defs><g transform="matrix(1,0,0,1,11.5,9.5)">
<g>
	<g>
		<path d="M8.5,-9.5 C8.5,-9.5 -9.5,-9.5 -9.5,-9.5 C-10.600000023841858,-9.5 -11.5,-8.599999904632568 -11.5,-7.5 C-11.5,-7.5 -11.5,6.5 -11.5,6.5 C-11.5,7.600000381469727 -10.600000023841858,8.5 -9.5,8.5 C-9.5,8.5 8.5,8.5 8.5,8.5 C9.600000381469727,8.5 10.5,7.600000381469727 10.5,6.5 C10.5,6.5 10.5,-7.5 10.5,-7.5 C10.5,-8.599999904632568 9.600000381469727,-9.5 8.5,-9.5M8.5,6.5 C8.5,6.5 -9.5,6.5 -9.5,6.5 C-9.5,6.5 -9.5,-7.5 -9.5,-7.5 C-9.5,-7.5 8.5,-7.5 8.5,-7.5 C8.5,-7.5 8.5,6.5 8.5,6.5 Z" fill="currentColor"/>
	</g>
	<g>
		<path d="M-4.5,2.5000000000000018 C-4.5,0.8400001525878924 -3.1599998474121094,-0.4999999999999982 -1.5,-0.4999999999999982 C-1.1499996185302717,-0.4999999999999982 -0.8100004196166992,-0.4300003051757777 -0.5,-0.31999969482421875 C-0.5,-0.31999969482421875 -0.5,-6.499999999999998 -0.5,-6.499999999999998 C-0.5,-6.499999999999998 4.5,-6.499999999999998 4.5,-6.499999999999998 C4.5,-6.499999999999998 4.5,-4.499999999999998 4.5,-4.499999999999998 C4.5,-4.499999999999998 1.5,-4.499999999999998 1.5,-4.499999999999998 C1.5,-4.499999999999998 1.5,2.529999732971193 1.5,2.529999732971193 C1.481928825378418,4.174440383911135 0.14453983306884766,5.4984569549560565 -1.5,5.500000000000002 C-3.1599998474121094,5.500000000000002 -4.5,4.159999847412111 -4.5,2.5000000000000018" fill="currentColor"/>
	</g>
</g></g></svg>